<?xml version="1.0" standalone="no"?>
<!DOCTYPE svg PUBLIC "-//W3C//DTD SVG 20010904//EN"
 "http://www.w3.org/TR/2001/REC-SVG-20010904/DTD/svg10.dtd">
<svg version="1.0" xmlns="http://www.w3.org/2000/svg"
 width="552.000000pt" height="552.000000pt" viewBox="0 0 552.000000 552.000000"
 preserveAspectRatio="xMidYMid meet">
<metadata>
Created by potrace 1.14, written by Peter Selinger 2001-2017
</metadata>
<g transform="translate(0.000000,552.000000) scale(0.100000,-0.100000)"
fill="#000000" stroke="none">
<path d="M878 5026 c-59 -21 -164 -102 -218 -169 -128 -157 -159 -329 -98
-536 17 -59 19 -76 9 -79 -30 -10 -215 -158 -282 -225 -76 -76 -180 -210 -247
-317 -39 -63 -40 -67 -41 -155 l0 -90 33 100 c51 151 77 203 143 285 219 274
507 465 883 588 329 107 771 108 1157 2 323 -89 498 -182 752 -400 66 -57 270
-299 338 -404 124 -187 321 -618 387 -846 15 -52 43 -144 61 -205 118 -384
310 -1329 366 -1798 12 -102 12 -108 -6 -121 -17 -12 -21 -12 -33 5 -11 16
-26 19 -111 19 -103 0 -121 -7 -121 -47 0 -26 16 -31 100 -35 47 -3 55 -6 55
-23 0 -17 -8 -20 -57 -23 -47 -2 -58 0 -58 13 0 8 -11 20 -24 25 -20 7 -25 17
-28 52 -3 39 -6 43 -32 46 -16 2 -32 -2 -37 -9 -9 -15 -147 -13 -166 2 -6 6
-24 9 -40 7 -28 -3 -28 -4 -33 -83 l-5 -80 -47 -3 -47 -3 -3 73 -3 73 -32 3
c-27 3 -33 -1 -38 -21 l-7 -25 -24 23 c-44 41 -120 43 -175 4 -22 -16 -52 -13
-50 5 4 30 -1 36 -34 36 -19 0 -35 -3 -35 -8 0 -4 -34 -6 -75 -4 -80 4 -105
-5 -105 -39 0 -21 28 -39 62 -40 18 0 14 -4 -18 -19 -55 -24 -61 -36 -35 -71
14 -18 21 -43 21 -71 0 -68 7 -73 109 -76 80 -4 91 -2 110 17 19 19 32 21 146
21 114 0 126 2 137 20 11 17 24 20 80 20 l67 0 3 -32 c3 -30 6 -33 38 -33 31
0 35 3 38 27 3 26 5 27 77 30 l74 3 3 -30 c3 -27 6 -30 38 -30 35 0 35 0 38
48 l3 47 45 0 c43 0 44 0 44 -34 0 -51 9 -66 39 -66 37 0 51 17 51 62 0 37 1
38 35 38 21 0 49 -9 68 -22 18 -13 33 -24 35 -25 6 -2 42 -354 42 -407 0 -9 7
-16 16 -16 18 0 17 28 -8 310 -9 99 -8 125 2 128 7 3 21 13 31 23 11 11 21 19
23 19 3 0 6 -24 8 -52 l3 -53 35 0 35 0 0 155 0 155 -35 0 c-31 0 -35 -3 -38
-28 -4 -32 -13 -34 -36 -8 -10 11 -28 21 -39 23 -27 4 -31 19 -52 178 -62 480
-242 1360 -346 1693 -37 118 -51 93 146 252 285 228 674 511 926 673 365 234
423 268 479 281 90 19 151 74 155 136 1 18 6 38 10 44 9 16 0 25 -18 18 -8 -3
-17 -21 -20 -41 -11 -71 -79 -126 -154 -126 -26 0 -138 -67 -487 -293 -262
-170 -670 -467 -920 -671 -54 -45 -112 -91 -127 -104 -21 -17 -30 -20 -33 -10
-2 7 -11 35 -20 62 -9 27 -16 56 -16 64 0 40 427 373 780 609 158 105 427 271
500 308 19 9 46 27 60 40 41 37 217 136 340 191 69 31 116 58 118 67 3 14 -1
15 -30 5 -53 -18 -327 -160 -403 -209 -38 -25 -97 -61 -130 -79 -363 -204
-901 -576 -1152 -799 -51 -44 -96 -81 -100 -81 -4 0 -32 66 -62 148 -105 288
-267 582 -443 803 -180 226 -461 451 -655 525 -237 90 -440 145 -627 169 -66
8 -121 17 -123 19 -2 2 10 14 27 27 17 13 59 48 93 78 87 75 134 105 248 162
119 60 226 89 325 89 40 0 75 4 78 9 15 24 -90 76 -175 86 -220 27 -508 -137
-615 -349 -21 -42 -32 -77 -28 -88 5 -18 1 -19 -52 -14 -77 6 -315 -10 -434
-30 -127 -21 -320 -84 -459 -150 -62 -30 -118 -51 -124 -47 -15 9 -1 164 23
258 39 146 137 324 221 400 64 58 44 82 -43 51z m-50 -103 c-63 -84 -129 -220
-164 -338 -19 -68 -26 -115 -27 -192 -1 -66 -6 -106 -15 -115 -6 -6 -12 -10
-13 -7 -2 13 -8 42 -24 113 -43 191 2 348 140 489 37 38 140 117 152 117 1 0
-21 -30 -49 -67z m1597 28 c25 -5 17 -9 -55 -25 -155 -33 -309 -108 -449 -220
-36 -29 -79 -61 -96 -72 l-29 -19 19 34 c52 91 205 222 310 266 93 38 219 54
300 36z m655 -4311 c0 -23 4 -30 20 -30 11 0 20 -7 20 -15 0 -8 -9 -15 -20
-15 -16 0 -20 -7 -21 -32 -1 -18 -1 -39 0 -45 1 -9 -17 -13 -63 -13 -87 0 -95
-18 -10 -22 43 -2 69 -8 72 -15 3 -10 -15 -13 -67 -13 -93 0 -92 -18 1 -22 46
-2 73 -7 76 -15 3 -10 -19 -13 -87 -13 l-91 0 0 60 0 60 43 1 c23 1 56 0 72
-1 l30 -1 -3 80 c-3 68 -1 81 12 81 11 0 16 -9 16 -30z m505 -111 c0 -112 -2
-134 -15 -134 -12 0 -15 22 -18 124 -3 132 0 155 21 149 9 -4 12 -40 12 -139z
m235 91 c0 -43 3 -50 20 -50 11 0 20 -7 20 -15 0 -8 -9 -15 -20 -15 -18 0 -20
-7 -20 -75 0 -60 -3 -75 -15 -75 -13 0 -15 22 -15 140 0 118 2 140 15 140 11
0 15 -12 15 -50z m505 -91 c0 -112 -2 -134 -15 -134 -11 0 -16 14 -18 53 -3
47 -5 52 -26 52 -13 0 -31 -9 -41 -20 -24 -26 -79 -26 -105 0 -15 15 -33 20
-75 20 l-55 0 0 -55 c0 -42 -3 -55 -15 -55 -11 0 -15 13 -15 55 l0 54 -57 3
c-92 5 -68 23 35 26 l92 3 0 44 0 45 -75 0 c-60 0 -75 3 -75 15 0 12 17 15 90
15 l90 0 0 -60 c0 -53 2 -60 20 -60 16 0 20 7 20 34 0 71 73 113 119 67 10
-10 30 -20 45 -23 23 -5 26 -2 26 22 0 30 8 42 24 37 7 -2 11 -52 11 -138z
m-1327 99 c2 -15 -2 -37 -8 -48 -11 -21 -81 -59 -107 -60 -23 0 -14 28 10 34
32 8 77 44 77 62 0 10 -13 14 -44 14 -43 0 -63 10 -49 24 4 4 32 6 63 4 51 -3
55 -5 58 -30z m307 -3 c30 -29 32 -64 6 -96 -16 -20 -28 -24 -76 -24 -48 0
-60 4 -76 24 -46 57 -5 121 78 121 33 0 50 -6 68 -25z m103 -59 l3 -77 61 3
c39 2 62 -1 65 -9 4 -12 -137 -30 -154 -20 -13 8 -4 189 10 184 8 -2 13 -33
15 -81z m332 29 l0 -55 -49 0 c-46 0 -49 -2 -47 -25 1 -24 4 -25 64 -25 48 0
62 -3 62 -15 0 -12 -16 -15 -80 -15 l-80 0 0 55 0 55 50 0 c47 0 50 2 50 25 0
23 -3 25 -50 25 -46 0 -60 7 -43 23 3 4 33 7 65 7 l58 0 0 -55z m-720 -35 c0
-11 -7 -20 -15 -20 -13 0 -13 3 -3 20 7 11 14 20 15 20 2 0 3 -9 3 -20z m100
-14 c0 -8 14 -26 31 -40 l31 -26 -39 0 c-38 0 -38 0 -38 40 0 22 3 40 8 40 4
0 7 -6 7 -14z m230 -41 c0 -21 -5 -25 -31 -25 l-30 0 28 25 c35 30 33 30 33 0z
m13 -60 c2 -11 -226 -20 -251 -10 -7 2 -10 10 -7 15 9 14 254 9 258 -5z"/>
<path d="M4140 601 c-26 -50 -2 -115 41 -109 21 3 24 9 27 51 2 27 -2 55 -9
63 -16 20 -46 17 -59 -5z m47 -48 c-3 -10 -5 -4 -5 12 0 17 2 24 5 18 2 -7 2
-21 0 -30z"/>
<path d="M4242 553 c2 -10 13 -19 26 -21 17 -3 22 2 22 17 0 16 -6 21 -26 21
-19 0 -25 -5 -22 -17z"/>
<path d="M3186 604 c-21 -20 -20 -37 2 -57 35 -32 112 -11 112 31 0 21 -32 42
-65 42 -18 0 -41 -7 -49 -16z m81 -20 c6 -15 -11 -34 -32 -34 -5 0 -16 4 -24
9 -21 14 -5 41 24 41 14 0 28 -7 32 -16z"/>
<path d="M1740 4163 c0 -45 34 -90 76 -102 42 -12 87 -5 81 12 -2 6 -23 11
-46 12 -49 1 -80 31 -81 78 0 17 -5 27 -15 27 -10 0 -15 -10 -15 -27z"/>
<path d="M1260 4083 c0 -40 -32 -87 -69 -103 -30 -12 -43 -40 -18 -40 25 0 84
49 101 83 20 44 21 87 1 87 -10 0 -15 -10 -15 -27z"/>
<path d="M2218 4015 c-50 -34 -72 -94 -66 -183 5 -67 23 -115 54 -147 13 -12
14 -19 5 -28 -6 -6 -11 -20 -11 -32 0 -16 8 -11 40 26 21 25 53 52 70 59 39
16 142 8 176 -14 23 -16 44 -14 44 3 0 4 -17 16 -37 25 l-38 17 0 72 c-1 170
-127 277 -237 202z m144 -51 c13 -28 3 -71 -20 -82 -9 -5 -31 -12 -49 -15 -61
-12 -107 57 -70 106 30 42 119 36 139 -9z m6 -142 c22 -14 -19 -41 -67 -44
-55 -4 -66 17 -19 37 37 16 67 18 86 7z"/>
<path d="M806 3749 c-63 -17 -96 -72 -96 -162 0 -87 24 -152 76 -203 42 -42
42 -43 22 -61 -21 -19 -48 -65 -48 -83 0 -22 18 -7 54 45 21 30 54 64 74 76
50 29 124 30 179 1 50 -26 53 -26 53 -7 0 19 -27 33 -79 41 -41 7 -42 7 -35
38 18 78 -4 204 -44 251 -45 53 -104 77 -156 64z m79 -45 c24 -10 36 -49 25
-79 -12 -32 -69 -60 -104 -51 -14 3 -33 18 -42 31 -38 59 46 127 121 99z m29
-203 c11 -18 -6 -40 -42 -54 -20 -9 -41 -12 -45 -7 -9 8 9 50 27 62 15 11 54
10 60 -1z"/>
<path d="M1773 3375 c-92 -20 -128 -41 -212 -124 -152 -149 -199 -314 -120
-415 75 -96 222 -74 364 55 74 66 87 70 189 43 90 -24 203 -23 252 3 84 43
114 165 61 255 -30 52 -101 118 -152 142 -106 51 -261 67 -382 41z m165 -23
c14 -9 21 -129 9 -149 -10 -16 -145 -45 -193 -41 -35 3 -41 8 -61 48 -35 68
-31 88 21 110 68 30 197 48 224 32z m188 -47 c98 -44 174 -135 174 -207 0 -18
-9 -52 -20 -76 -34 -75 -119 -91 -286 -51 -52 13 -102 19 -116 16 -15 -4 -50
-28 -79 -54 -76 -70 -107 -91 -161 -109 -115 -38 -200 19 -200 133 0 69 61
184 136 257 l60 59 18 -53 c25 -73 42 -90 92 -90 38 0 223 43 234 55 3 2 5 39
6 81 l1 76 45 -7 c25 -4 68 -17 96 -30z"/>
<path d="M5445 3110 c-13 -5 -14 -9 -5 -9 8 0 24 4 35 9 13 5 14 9 5 9 -8 0
-24 -4 -35 -9z"/>
<path d="M4410 2760 c-8 -5 -10 -10 -5 -10 6 0 17 5 25 10 8 5 11 10 5 10 -5
0 -17 -5 -25 -10z"/>
<path d="M4130 2678 c-205 -61 -266 -81 -273 -87 -9 -9 261 68 328 93 57 21
22 17 -55 -6z"/>
<path d="M2124 2589 c-53 -55 -105 -84 -188 -106 -38 -10 -71 -24 -74 -32 -8
-24 103 -6 173 28 57 28 145 107 145 130 0 24 -20 17 -56 -20z"/>
<path d="M2 1555 l-2 -50 55 0 c66 0 81 19 27 35 -20 5 -45 10 -54 10 -11 0
-18 10 -21 28 -2 15 -5 6 -5 -23z"/>
<path d="M136 1121 c-3 -5 8 -34 24 -65 17 -30 30 -67 30 -80 0 -50 61 -322
135 -603 103 -395 96 -373 117 -373 22 0 23 -9 -8 96 -14 49 -43 157 -64 239
-21 83 -50 195 -65 250 -14 55 -37 152 -50 215 -13 63 -31 147 -40 187 -20 97
-60 165 -79 134z"/>
<path d="M1578 680 c-8 -12 -24 -20 -40 -20 -31 0 -45 -28 -29 -59 6 -11 11
-35 11 -54 0 -19 7 -40 15 -47 9 -8 15 -29 15 -55 0 -74 1 -75 105 -75 51 0
100 3 109 6 18 7 22 44 6 60 -13 13 -1 54 16 54 10 0 14 -13 14 -44 0 -76 -1
-76 116 -76 116 0 109 -5 117 85 3 36 4 34 5 -11 1 -30 8 -56 16 -63 9 -8 48
-11 112 -9 96 3 99 4 102 27 2 13 0 27 -5 32 -4 4 -7 28 -5 53 3 33 9 47 22
51 10 3 21 14 23 23 3 9 5 -8 6 -38 0 -31 6 -61 13 -68 7 -7 43 -12 89 -12
l78 0 3 -32 c3 -30 6 -33 38 -33 l35 0 3 53 c2 28 7 52 13 52 5 0 9 -6 9 -14
0 -17 31 -26 97 -26 51 0 52 -1 55 -31 4 -39 30 -59 56 -43 15 10 17 29 17
165 l0 154 -35 0 c-28 0 -35 -4 -40 -25 -8 -34 -47 -40 -52 -8 -2 19 -9 23
-38 23 -33 0 -35 -2 -38 -35 -2 -19 -11 -43 -20 -54 -16 -17 -17 -15 -22 40
l-5 59 -35 0 c-29 0 -36 -4 -38 -22 -3 -18 -10 -23 -31 -23 -39 0 -51 -18 -47
-73 2 -33 -1 -47 -10 -47 -9 0 -14 22 -16 73 -3 67 -5 72 -26 75 -33 5 -52
-15 -52 -54 l0 -33 -24 22 c-13 13 -26 36 -28 52 -2 25 -8 31 -32 33 -19 2
-32 -2 -38 -12 -12 -22 -31 -20 -53 4 -10 11 -24 20 -32 20 -7 0 -22 -9 -33
-20 -24 -24 -36 -25 -48 -4 -6 10 -19 14 -38 12 -27 -3 -29 -6 -32 -55 -2 -29
-6 -53 -10 -53 -20 1 -41 30 -44 61 -3 32 -5 34 -38 34 -32 0 -35 -3 -40 -33
-3 -18 -8 -33 -12 -32 -5 0 -14 0 -22 0 -10 0 -16 13 -18 38 -3 34 -6 37 -36
40 -22 2 -34 -2 -38 -12 -8 -22 -30 -20 -54 4 -11 11 -27 20 -35 20 -8 0 -20
-9 -27 -20z m48 -25 c4 -9 19 -15 35 -15 19 0 29 -5 29 -15 0 -10 -10 -15 -31
-15 l-30 0 28 -24 c24 -21 26 -27 18 -52 -20 -57 -110 -57 -130 0 -8 25 -6 31
18 52 l28 24 -30 0 c-21 0 -31 5 -31 15 0 10 10 15 30 15 20 0 30 5 30 15 0 8
7 15 15 15 9 0 18 -7 21 -15z m122 -27 c2 -26 9 -37 23 -41 25 -7 25 -27 0
-27 -17 0 -20 -8 -23 -47 -2 -35 -7 -48 -18 -48 -12 0 -15 18 -16 95 -1 52 0
99 3 103 11 18 28 -2 31 -35z m251 -98 l0 -140 -84 0 -85 0 0 55 0 55 73 0 72
0 -3 85 c-3 72 -1 85 12 85 13 0 16 -20 15 -140z m121 125 c0 -10 10 -15 30
-15 20 0 30 -5 30 -15 0 -10 -10 -15 -27 -15 l-27 0 22 -20 c59 -55 -15 -129
-89 -90 -28 15 -26 74 3 94 22 16 22 16 -10 16 -22 0 -32 5 -32 15 0 10 11 15
35 15 24 0 35 5 35 15 0 8 7 15 15 15 8 0 15 -7 15 -15z m120 -25 c0 -33 3
-40 20 -40 11 0 20 -7 20 -15 0 -8 -9 -15 -19 -15 -17 0 -20 -8 -23 -47 -2
-26 -9 -48 -15 -51 -10 -3 -13 22 -13 102 0 88 3 106 15 106 11 0 15 -11 15
-40z m305 -100 c0 -95 -3 -134 -12 -137 -8 -3 -13 16 -15 64 l-3 68 -37 3
c-55 5 -52 32 3 32 52 0 48 24 -4 28 -53 5 -50 32 3 32 36 0 40 2 40 26 0 16
5 24 13 22 9 -4 12 -40 12 -138z m247 63 c5 -131 -1 -203 -17 -203 -11 0 -15
12 -15 40 l0 40 -75 0 c-60 0 -75 3 -75 15 0 12 15 15 78 15 l78 0 -4 39 c-3
34 -8 40 -30 43 -38 4 -41 28 -3 28 26 0 31 4 31 23 0 24 7 37 21 37 4 0 9
-35 11 -77z m-922 41 c0 -16 13 -39 36 -61 24 -25 32 -39 25 -46 -8 -8 -18 -4
-34 11 -30 28 -48 28 -77 -3 -16 -17 -27 -22 -34 -15 -7 7 0 21 22 43 19 19
32 43 32 58 0 14 3 29 7 32 13 14 23 6 23 -19z m790 -5 c0 -23 9 -40 36 -64
43 -39 28 -59 -18 -25 l-30 22 -27 -26 c-15 -14 -32 -26 -39 -26 -21 0 -13 25
18 52 20 18 30 35 30 55 0 17 3 33 7 36 14 15 23 6 23 -24z m-292 -64 l3 -78
59 6 c37 4 61 3 66 -4 10 -16 2 -19 -79 -25 l-77 -7 0 97 c0 74 3 97 13 94 8
-3 13 -31 15 -83z m-675 -95 c4 -17 0 -20 -29 -20 -39 0 -44 10 -11 26 32 16
34 16 40 -6z m476 -18 c-11 -2 -27 -2 -37 0 -13 3 -10 7 13 20 28 15 30 15 36
0 4 -12 0 -18 -12 -20z m-561 -5 c3 -26 5 -27 73 -27 55 0 69 -3 69 -15 0 -12
-16 -15 -83 -15 -46 0 -86 2 -88 4 -3 3 -3 23 -1 46 5 46 25 50 30 7z m492 3
l0 -30 76 0 c56 0 75 -3 72 -12 -3 -9 -33 -14 -91 -16 l-87 -3 0 46 c0 33 4
45 15 45 10 0 15 -10 15 -30z"/>
<path d="M1585 566 c-16 -12 -17 -16 -6 -30 17 -20 45 -21 60 -2 9 11 8 18 -4
30 -20 20 -26 20 -50 2z"/>
<path d="M1860 445 c0 -24 3 -25 55 -25 52 0 55 1 55 25 0 24 -3 25 -55 25
-52 0 -55 -1 -55 -25z m73 -2 c-7 -2 -21 -2 -30 0 -10 3 -4 5 12 5 17 0 24 -2
18 -5z"/>
<path d="M2082 571 c-23 -14 -10 -46 21 -49 35 -4 49 25 22 44 -22 16 -25 17
-43 5z"/>
<path d="M0 491 c0 -68 14 -132 61 -281 58 -182 70 -210 91 -210 15 0 18 4 13
18 -28 67 -92 270 -122 387 -19 77 -37 142 -39 144 -2 2 -4 -24 -4 -58z"/>
</g>
</svg>
